<svg width="35" height="34" viewBox="0 0 35 34" fill="none" xmlns="http://www.w3.org/2000/svg">
<path d="M6.16665 17.0007C6.16665 10.7414 11.2407 5.66732 17.5 5.66732C23.7592 5.66732 28.8333 10.7414 28.8333 17.0007C28.8333 23.2599 23.7592 28.334 17.5 28.334C11.2407 28.334 6.16665 23.2599 6.16665 17.0007ZM17.5 2.83398C9.67594 2.83398 3.33331 9.17661 3.33331 17.0007C3.33331 24.8246 9.67594 31.1673 17.5 31.1673C25.3239 31.1673 31.6666 24.8246 31.6666 17.0007C31.6666 9.17661 25.3239 2.83398 17.5 2.83398ZM25.2309 13.3982L23.2274 11.3947L16.0833 18.5389L12.1267 14.5823L10.1232 16.5857L16.0833 22.5458L25.2309 13.3982Z" fill="#3DCCBA"/>
</svg>
