<svg xmlns="http://www.w3.org/2000/svg" width="512" height="512" fill="none"><path fill="#fff" d="M0 0h512v512H0z"/><path fill="#BC8D3F" d="M231.664 408.481c0 4.113.371 8.027 1.128 11.754.742 3.742 2.426 6.913 5.038 9.513 2.241 2.242 5.224 3.742 8.949 4.47a111.92 111.92 0 0 0 11.191 1.685h5.038l68.826-.557c2.612.372 5.31.472 8.107.272a48.138 48.138 0 0 0 8.664-1.4 58.624 58.624 0 0 0 11.19-2.242c3.726-1.114 6.894-2.614 9.506-4.485 5.224-3.356 9.135-7.641 11.747-12.883 2.612-5.227 5.039-10.998 7.28-17.353a28.322 28.322 0 0 1 1.399-4.199 45.472 45.472 0 0 0 1.398-3.643l7.265-20.709v94.065H113.609l12.875-3.913c2.983-.372 6.437-1.114 10.348-2.243a972.68 972.68 0 0 1 12.032-3.356 295.755 295.755 0 0 1 11.191-4.199c3.725-1.3 7.079-2.7 10.062-4.199a22.344 22.344 0 0 0 5.039-2.8c1.484-1.128 2.612-2.042 3.354-2.799a31.499 31.499 0 0 0 1.956-3.357 31.306 31.306 0 0 1 1.955-3.356c.742-2.242 1.213-4.485 1.399-6.713.185-2.242.285-4.485.285-6.713v-316.06c0-.928.186-1.956.557-3.085V93.82c0-1.485-.1-2.885-.271-4.199-.2-1.3-.471-2.7-.842-4.199a36.478 36.478 0 0 0-1.685-6.441c-.756-2.043-1.869-4-3.354-5.885-.756-.742-1.87-1.685-3.354-2.799-1.499-1.114-3.169-2.042-5.039-2.8-2.983-1.485-6.351-2.885-10.062-4.199a247.85 247.85 0 0 1-11.191-4.199c-4.11-1.114-8.107-2.242-12.032-3.356a386.528 386.528 0 0 0-10.348-2.8l-12.875-4.47h189.678l-12.303 5.042c-2.241 1.5-4.853 2.614-7.836 3.356a320.65 320.65 0 0 1-9.506 2.243 11.34 11.34 0 0 1-2.241.842 10.7 10.7 0 0 0-2.241.843c-6.352 1.5-12.404 3.27-18.184 5.313-5.781 2.057-9.792 4.4-12.033 6.999a7.353 7.353 0 0 1-1.398 1.928 7.334 7.334 0 0 0-1.399 1.928c-2.241 4.028-3.554 8.155-3.911 12.369-.371 4.213-.557 8.883-.557 14.011v305.134h-.014Z"/></svg>