<svg width="24" height="24" viewBox="0 0 24 24" fill="none" xmlns="http://www.w3.org/2000/svg">
<path d="M17.757 2.76392H16.875V1.88196C16.875 1.64805 16.7821 1.42372 16.6167 1.25832C16.4513 1.09292 16.227 1 15.9931 1C15.7592 1 15.5348 1.09292 15.3694 1.25832C15.204 1.42372 15.1111 1.64805 15.1111 1.88196V2.76392H8.05556V1.88196C8.05556 1.64805 7.96264 1.42372 7.79725 1.25832C7.63185 1.09292 7.40752 1 7.17362 1C6.93971 1 6.71538 1.09292 6.54999 1.25832C6.38459 1.42372 6.29167 1.64805 6.29167 1.88196V2.76392H5.40973C4.24062 2.76532 3.11981 3.23037 2.29313 4.05706C1.46644 4.88375 1.0014 6.00459 1 7.17371L1 17.7572C1.0014 18.9263 1.46644 20.0472 2.29313 20.8738C3.11981 21.7005 4.24062 22.1656 5.40973 22.167H17.757C18.9261 22.1656 20.0469 21.7005 20.8736 20.8738C21.7002 20.0472 22.1653 18.9263 22.1667 17.7572V7.17371C22.1653 6.00459 21.7002 4.88375 20.8736 4.05706C20.0469 3.23037 18.9261 2.76532 17.757 2.76392ZM2.76389 7.17371C2.76389 6.47198 3.04265 5.79899 3.53884 5.30279C4.03503 4.80659 4.70801 4.52783 5.40973 4.52783H17.757C18.4587 4.52783 19.1317 4.80659 19.6278 5.30279C20.124 5.79899 20.4028 6.47198 20.4028 7.17371V8.05566H2.76389V7.17371ZM17.757 20.4031H5.40973C4.70801 20.4031 4.03503 20.1243 3.53884 19.6281C3.04265 19.1319 2.76389 18.4589 2.76389 17.7572V9.81958H20.4028V17.7572C20.4028 18.4589 20.124 19.1319 19.6278 19.6281C19.1317 20.1243 18.4587 20.4031 17.757 20.4031Z" fill="white"/>
<path d="M11.5833 15.5521C12.3139 15.5521 12.9062 14.9598 12.9062 14.2292C12.9062 13.4985 12.3139 12.9062 11.5833 12.9062C10.8527 12.9062 10.2604 13.4985 10.2604 14.2292C10.2604 14.9598 10.8527 15.5521 11.5833 15.5521Z" fill="white"/>
<path d="M7.17338 15.5521C7.90401 15.5521 8.4963 14.9598 8.4963 14.2292C8.4963 13.4985 7.90401 12.9062 7.17338 12.9062C6.44275 12.9062 5.85046 13.4985 5.85046 14.2292C5.85046 14.9598 6.44275 15.5521 7.17338 15.5521Z" fill="white"/>
<path d="M15.9933 15.5521C16.724 15.5521 17.3162 14.9598 17.3162 14.2292C17.3162 13.4985 16.724 12.9062 15.9933 12.9062C15.2627 12.9062 14.6704 13.4985 14.6704 14.2292C14.6704 14.9598 15.2627 15.5521 15.9933 15.5521Z" fill="white"/>
</svg>
