<svg width="17" height="20" viewBox="0 0 17 20" fill="none" xmlns="http://www.w3.org/2000/svg">
<path d="M8.33333 12.5002C8.11232 12.5002 7.90036 12.4124 7.74408 12.2562C7.5878 12.0999 7.5 11.8879 7.5 11.6669C7.53094 11.1224 7.69661 10.5941 7.98212 10.1294C8.26763 9.66471 8.66407 9.27818 9.13583 9.0045C9.4441 8.83555 9.69085 8.5732 9.84059 8.25516C9.99033 7.93712 10.0353 7.57979 9.96917 7.23455C9.90498 6.9048 9.74378 6.60173 9.50622 6.36419C9.26867 6.12664 8.96559 5.96545 8.63583 5.90126C8.39511 5.85683 8.14755 5.86597 7.91076 5.92804C7.67397 5.9901 7.45375 6.10356 7.26577 6.26035C7.07779 6.41715 6.92665 6.61342 6.82311 6.83523C6.71956 7.05703 6.66615 7.29893 6.66667 7.54371C6.66667 7.76472 6.57887 7.97667 6.42259 8.13295C6.26631 8.28922 6.05435 8.37702 5.83333 8.37702C5.61232 8.37702 5.40036 8.28922 5.24408 8.13295C5.0878 7.97667 5 7.76472 5 7.54371C4.99992 7.05685 5.10649 6.57589 5.31222 6.13463C5.51795 5.69338 5.81785 5.30255 6.19083 4.98962C6.54729 4.69163 6.96212 4.47145 7.40868 4.34321C7.85524 4.21496 8.32368 4.18149 8.78395 4.24493C9.24421 4.30837 9.68612 4.46733 10.0813 4.7116C10.4766 4.95587 10.8163 5.28006 11.0789 5.66337C11.3414 6.04668 11.5209 6.48064 11.6059 6.9374C11.6909 7.39417 11.6794 7.86365 11.5722 8.31572C11.4651 8.7678 11.2646 9.19248 10.9837 9.56251C10.7027 9.93255 10.3475 10.2398 9.94083 10.4645C9.73013 10.5943 9.55121 10.7697 9.41723 10.9778C9.28326 11.1859 9.19763 11.4214 9.16667 11.6669C9.16667 11.8879 9.07887 12.0999 8.92259 12.2562C8.76631 12.4124 8.55435 12.5002 8.33333 12.5002ZM8.99417 19.8C10.7942 19.0767 16.6667 16.2326 16.6667 10.0361V5.7271C16.6676 4.8513 16.3921 3.99754 15.8795 3.28744C15.3669 2.57733 14.6432 2.04708 13.8117 1.77222L8.59583 0.0431039C8.42555 -0.014368 8.24111 -0.014368 8.07083 0.0431039L2.855 1.77222C2.02343 2.04708 1.29979 2.57733 0.78717 3.28744C0.274547 3.99754 -0.000921215 4.8513 2.31458e-06 5.7271V10.0361C2.31458e-06 15.5043 5.8375 18.8492 7.6275 19.7442C7.8439 19.8745 8.08366 19.9614 8.33333 20C8.56412 19.975 8.78823 19.9071 8.99417 19.8ZM13.2867 3.35384C13.7854 3.51918 14.2194 3.83747 14.527 4.2635C14.8346 4.68954 15.0001 5.20165 15 5.7271V10.0361C15 15.1885 9.9275 17.6284 8.3725 18.2534C6.79917 17.4667 1.66667 14.5493 1.66667 10.0361V5.7271C1.6666 5.20165 1.8321 4.68954 2.13967 4.2635C2.44724 3.83747 2.88123 3.51918 3.38 3.35384L8.33333 1.71222L13.2867 3.35384ZM8.33333 14.1668C8.16852 14.1668 8.0074 14.2157 7.87036 14.3073C7.73332 14.3988 7.62651 14.529 7.56343 14.6813C7.50036 14.8335 7.48386 15.0011 7.51601 15.1627C7.54817 15.3244 7.62753 15.4728 7.74408 15.5894C7.86062 15.7059 8.00911 15.7853 8.17076 15.8174C8.33241 15.8496 8.49996 15.8331 8.65224 15.77C8.80451 15.707 8.93466 15.6002 9.02622 15.4631C9.11779 15.3261 9.16667 15.165 9.16667 15.0002C9.16667 14.7791 9.07887 14.5672 8.92259 14.4109C8.76631 14.2546 8.55435 14.1668 8.33333 14.1668Z" fill="white"/>
</svg>
