<svg width="187" height="291" viewBox="0 0 187 291" fill="none" xmlns="http://www.w3.org/2000/svg">
<path d="M69.71 252.06C69.71 254.94 69.97 257.68 70.5 260.29C71.02 262.91 72.2 265.13 74.03 266.95C75.6 268.52 77.69 269.57 80.3 270.08C82.91 270.61 85.53 271 88.14 271.26H91.67L139.89 270.87C141.72 271.13 143.61 271.2 145.57 271.06C147.53 270.93 149.55 270.61 151.64 270.08C154.25 269.82 156.87 269.3 159.48 268.51C162.09 267.73 164.31 266.68 166.14 265.37C169.8 263.02 172.54 260.02 174.37 256.35C176.2 252.69 177.9 248.65 179.47 244.2C179.73 243.16 180.06 242.18 180.45 241.26C180.84 240.35 181.17 239.5 181.43 238.71L186.52 224.21V290.07H-13L-3.98 287.33C-1.89 287.07 0.530001 286.55 3.27 285.76C6.01 284.98 8.82 284.19 11.7 283.41C14.31 282.37 16.93 281.39 19.54 280.47C22.15 279.56 24.5 278.58 26.59 277.53C27.89 277.01 29.07 276.35 30.12 275.57C31.16 274.78 31.95 274.14 32.47 273.61C32.99 272.83 33.45 272.04 33.84 271.26C34.23 270.48 34.69 269.69 35.21 268.91C35.73 267.34 36.06 265.77 36.19 264.21C36.32 262.64 36.39 261.07 36.39 259.51V38.22C36.39 37.57 36.52 36.85 36.78 36.06V31.75C36.78 30.71 36.71 29.73 36.59 28.81C36.45 27.9 36.26 26.92 36 25.87C35.74 24.3 35.34 22.8 34.82 21.36C34.29 19.93 33.51 18.56 32.47 17.24C31.94 16.72 31.16 16.06 30.12 15.28C29.07 14.5 27.9 13.85 26.59 13.32C24.5 12.28 22.14 11.3 19.54 10.38C16.92 9.47 14.31 8.49 11.7 7.44C8.82 6.66 6.02 5.87 3.27 5.09C0.52 4.31 -1.89 3.66 -3.98 3.13L-13 0H119.89L111.27 3.53C109.7 4.58 107.87 5.36 105.78 5.88C103.69 6.41 101.47 6.93 99.12 7.45C98.59 7.71 98.07 7.91 97.55 8.04C97.02 8.17 96.5 8.37 95.98 8.63C91.53 9.68 87.29 10.92 83.24 12.35C79.19 13.79 76.38 15.43 74.81 17.25C74.55 17.76 74.22 18.22 73.83 18.6C73.44 18.99 73.11 19.43 72.85 19.95C71.28 22.77 70.36 25.66 70.11 28.61C69.85 31.56 69.72 34.83 69.72 38.42V252.06H69.71Z" fill="#BC8D3F"/>
</svg>
